<svg width="100" height="38" viewBox="0 0 100 38" fill="none" xmlns="http://www.w3.org/2000/svg">
<g clip-path="url(#clip0_420_2210)">
<g clip-path="url(#clip1_420_2210)">
<path fill-rule="evenodd" clip-rule="evenodd" d="M32.5078 5.39797C30.396 5.39797 28.4368 5.73347 26.7041 6.44136C27.4908 7.90915 28.041 9.5212 28.301 11.2339C29.4416 10.7139 30.8523 10.5126 32.5464 10.5126C37.7379 10.5126 40.5626 12.6161 40.5626 21.5923V37.8218H45.9637V21.646C45.9637 9.70739 39.8799 5.39797 32.5078 5.39797Z" fill="#FFC51A"/>
<path d="M0 37.8236H5.48669V16.196C5.48669 7.42113 7.94908 5.11293 13.6572 5.11293C18.847 5.11293 21.6734 7.21648 21.6734 16.196V37.8236H27.0728V16.2446C27.0728 4.30942 20.9907 0 13.6186 0C5.72991 0 0 4.61976 0 16.5063V37.8236Z" fill="#FFC51A"/>
<path fill-rule="evenodd" clip-rule="evenodd" d="M13.4399 8.03632H13.6395C16.2579 8.03632 17.9302 10.1583 17.9302 12.7768V14.6372C17.9302 17.2557 16.2579 19.376 13.6395 19.376H13.4399C10.8215 19.376 9.14917 17.2557 9.14917 14.6372V12.7768C9.14917 10.1583 10.8215 8.03632 13.4399 8.03632Z" fill="#FFC51A"/>
</g>
<g clip-path="url(#clip2_420_2210)">
<path d="M65.6151 33.1133C64.8049 33.3029 64.0987 33.422 63.4915 33.4773C62.8843 33.5327 62.2586 33.5646 61.6112 33.5646C59.8315 33.5646 58.5886 33.2006 57.8807 32.4675C57.1728 31.7378 56.8223 30.4545 56.8223 28.6227V14.6947H65.0095V10.4826H56.8223V2.17573L51.3037 5.2606V28.0021C51.3037 29.7651 51.4647 31.2698 51.7885 32.5229C52.1122 33.7793 52.6372 34.7975 53.3652 35.5809C54.0932 36.3676 55.0325 36.9363 56.1866 37.2936C57.3372 37.6509 58.7227 37.8287 60.3414 37.8287C61.269 37.8287 62.1177 37.7901 62.886 37.7213C63.6542 37.6425 64.565 37.4932 65.6168 37.2667V33.1133H65.6151Z" fill="#111827"/>
<path d="M90.859 17.4482C90.2937 16.0643 89.497 14.8733 88.4687 13.8819C87.4355 12.8922 86.2211 12.1172 84.8188 11.557C83.4182 11.0017 81.88 10.7199 80.2093 10.7199C78.3424 10.7199 76.6282 11.0453 75.0732 11.6928C73.5183 12.342 72.1848 13.2428 71.076 14.3936C69.9656 15.5477 69.1001 16.945 68.4778 18.5822C67.8555 20.2228 67.5452 22.011 67.5452 23.9602C67.5452 28.3183 68.877 31.7135 71.5423 34.1458C74.206 36.5748 77.9499 37.7926 82.7741 37.7926C84.1763 37.7926 85.4411 37.7104 86.5683 37.5477C87.6955 37.3867 88.8814 37.1082 90.126 36.7123V32.7652C88.9183 33.1645 87.8129 33.4429 86.8014 33.609C85.7883 33.7684 84.6997 33.8472 83.5322 33.8472C80.3821 33.8472 77.9013 33.1511 76.0931 31.7688C74.2832 30.3815 73.2633 28.3887 73.0285 25.7937H91.1743C91.3706 25.0371 91.5065 24.3745 91.587 23.7941C91.6625 23.2187 91.7027 22.6065 91.7027 21.9573C91.7027 20.3385 91.4192 18.8338 90.8556 17.4466L90.859 17.4482ZM86.5699 22.5528H72.9144C73.1073 20.0718 73.837 18.1142 75.1017 16.69C76.3665 15.2726 77.9902 14.558 79.9745 14.558C81.9588 14.558 83.6127 15.2155 84.8188 16.5307C86.0248 17.8458 86.6287 19.4948 86.6287 21.4775C86.6287 22.0143 86.6085 22.3783 86.5699 22.5561V22.5528Z" fill="#111827"/>
<path d="M100 37.8579V2.66962H94.6008V37.8579H100Z" fill="#111827"/>
</g>
</g>
<defs>
<clipPath id="clip0_420_2210">
<rect width="100" height="37.8579" fill="white"/>
</clipPath>
<clipPath id="clip1_420_2210">
<rect width="45.9637" height="37.8236" fill="white"/>
</clipPath>
<clipPath id="clip2_420_2210">
<rect width="48.6959" height="35.6822" fill="white" transform="translate(51.3037 2.17572)"/>
</clipPath>
</defs>
</svg>
